<?xml version="1.0" standalone="no"?><!DOCTYPE svg PUBLIC "-//W3C//DTD SVG 1.1//EN" "http://www.w3.org/Graphics/SVG/1.1/DTD/svg11.dtd"><svg t="1614246708672" class="icon" viewBox="0 0 1024 1024" version="1.1" xmlns="http://www.w3.org/2000/svg" p-id="2072" xmlns:xlink="http://www.w3.org/1999/xlink" width="200" height="200"><defs><style type="text/css"></style></defs><path d="M128 512c0 148.032 88.32 275.968 216.416 336.576l-183.168-488.768c-21.312 46.496-33.248 97.984-33.248 152.192zM771.232 493.12c0-46.24-17.056-78.24-31.648-103.136-19.456-30.816-37.728-56.896-37.728-87.712 0-34.368 26.752-66.368 64.48-66.368 1.696 0 3.328 0.192 4.96 0.288-68.32-60.96-159.328-98.208-259.296-98.208-134.144 0-252.192 67.04-320.832 168.576 9.024 0.288 17.504 0.448 24.704 0.448 40.16 0 102.336-4.768 102.336-4.768 20.704-1.184 23.136 28.448 2.464 30.816 0 0-20.8 2.368-43.936 3.552l139.84 405.12 84.032-245.472-59.808-159.648c-20.672-1.184-40.288-3.552-40.288-3.552-20.704-1.184-18.272-32 2.432-30.816 0 0 63.392 4.768 101.12 4.768 40.16 0 102.336-4.768 102.336-4.768 20.704-1.184 23.136 28.448 2.432 30.816 0 0-20.832 2.368-43.936 3.552l138.784 402.016 38.304-124.64c16.576-51.744 29.216-88.896 29.216-120.896zM518.752 544.704l-115.232 326.048c34.4 9.856 70.784 15.232 108.48 15.232 44.704 0 87.616-7.52 127.52-21.216-1.024-1.6-1.984-3.296-2.752-5.152l-118.016-314.944zM848.96 332.576c1.664 11.904 2.592 24.672 2.592 38.464 0 37.92-7.296 80.608-29.216 133.952l-117.28 330.272c114.176-64.832 190.944-185.28 190.944-323.264 0-65.024-17.056-126.176-47.04-179.424zM512 0c-282.784 0-512 229.216-512 512s229.216 512 512 512 512-229.216 512-512-229.216-512-512-512zM512 960c-247.424 0-448-200.576-448-448s200.576-448 448-448 448 200.576 448 448-200.576 448-448 448z" fill="#1296db" p-id="2073"></path></svg>